<?xml version="1.0" encoding="UTF-8" standalone="no" ?>
<!DOCTYPE svg PUBLIC "-//W3C//DTD SVG 1.1//EN" "http://www.w3.org/Graphics/SVG/1.1/DTD/svg11.dtd">
<svg xmlns="http://www.w3.org/2000/svg" xmlns:xlink="http://www.w3.org/1999/xlink" version="1.1" width="100" height="100" viewBox="0 0 200 200" xml:space="preserve">
<desc>Created with Fabric.js 4.6.0</desc>
<defs>
</defs>
<g transform="matrix(1 0 0 1 100 100)" id="Okbou8qMZ8w2X0rnQG7v5"  >
<path style="stroke: rgb(147,70,63); stroke-width: 0; stroke-dasharray: none; stroke-linecap: butt; stroke-dashoffset: 0; stroke-linejoin: miter; stroke-miterlimit: 4; fill: rgb(33,57,169); fill-opacity: 0.5; fill-rule: nonzero; opacity: 1;" vector-effect="non-scaling-stroke"  transform=" translate(-80, -80)" d="M 80 0 C 124.16 0 160 35.84 160 80 C 160 124.16 124.16 160 80 160 C 35.84 160 0 124.16 0 80 C 0 35.84 35.84 0 80 0 z" stroke-linecap="round" />
</g>
<g transform="matrix(0.21 0 0 0.78 80 100)" id="AN2GKdWnwIjUiX3r37RSv"  >
<path style="stroke: rgb(62,178,236); stroke-width: 0; stroke-dasharray: none; stroke-linecap: butt; stroke-dashoffset: 0; stroke-linejoin: miter; stroke-miterlimit: 4; fill: rgb(255,255,255); fill-rule: nonzero; opacity: 1;" vector-effect="non-scaling-stroke"  transform=" translate(0, 0)" d="M -49.88852 -47.06175 C -49.88852 -48.622930000000004 -45.10741 -49.88852 -39.20962 -49.88852 L 39.20961 -49.88852 L 39.20961 -49.88852 C 45.1074 -49.88852 49.88851 -48.62293 49.88851 -47.06175 L 49.88851 47.06175 L 49.88851 47.06175 C 49.88851 48.622930000000004 45.1074 49.88852 39.20961 49.88852 L -39.20962 49.88852 L -39.20962 49.88852 C -45.10741 49.88852 -49.88852 48.62293 -49.88852 47.06175 z" stroke-linecap="round" />
</g>
<g transform="matrix(0.21 0 0 0.78 120 100)" id="Ja7nepoTmXQ0Qb0kEXucD"  >
<path style="stroke: rgb(62,178,236); stroke-width: 0; stroke-dasharray: none; stroke-linecap: butt; stroke-dashoffset: 0; stroke-linejoin: miter; stroke-miterlimit: 4; fill: rgb(255,255,255); fill-rule: nonzero; opacity: 1;" vector-effect="non-scaling-stroke"  transform=" translate(0, 0)" d="M -49.88852 -47.06175 C -49.88852 -48.622930000000004 -45.10741 -49.88852 -39.20962 -49.88852 L 39.20961 -49.88852 L 39.20961 -49.88852 C 45.1074 -49.88852 49.88851 -48.62293 49.88851 -47.06175 L 49.88851 47.06175 L 49.88851 47.06175 C 49.88851 48.622930000000004 45.1074 49.88852 39.20961 49.88852 L -39.20962 49.88852 L -39.20962 49.88852 C -45.10741 49.88852 -49.88852 48.62293 -49.88852 47.06175 z" stroke-linecap="round" />
</g>
</svg>